<svg xmlns="http://www.w3.org/2000/svg" xmlns:xlink="http://www.w3.org/1999/xlink" width="500" zoomAndPan="magnify" viewBox="0 0 375 374.999991" height="500" preserveAspectRatio="xMidYMid meet" version="1.0"><defs><clipPath id="87715a0aca"><path d="M 8.40625 8.40625 L 366.90625 8.40625 L 366.90625 366.90625 L 8.40625 366.90625 Z M 8.40625 8.40625 " clip-rule="nonzero"/></clipPath></defs><g clip-path="url(#87715a0aca)"><path fill="#1eeadb" d="M 187.496094 8.417969 C 286.257812 8.417969 366.589844 88.75 366.589844 187.496094 C 366.589844 286.246094 286.257812 366.578125 187.496094 366.578125 C 88.746094 366.578125 8.40625 286.246094 8.40625 187.496094 C 8.40625 88.75 88.746094 8.417969 187.496094 8.417969 Z M 236.570312 117.234375 L 187.5 166.308594 L 138.425781 117.230469 C 132.574219 111.382812 123.089844 111.375 117.234375 117.230469 C 111.386719 123.078125 111.386719 132.570312 117.234375 138.417969 L 166.308594 187.5 L 117.230469 236.570312 C 111.382812 242.425781 111.382812 251.910156 117.230469 257.761719 C 123.089844 263.621094 132.570312 263.613281 138.425781 257.765625 L 187.5 208.6875 L 236.570312 257.761719 C 242.421875 263.609375 251.910156 263.613281 257.761719 257.765625 C 263.621094 251.90625 263.609375 242.421875 257.761719 236.570312 L 208.6875 187.5 L 257.761719 138.425781 C 263.609375 132.582031 263.621094 123.089844 257.761719 117.234375 C 251.910156 111.382812 242.421875 111.386719 236.570312 117.234375 Z M 236.570312 117.234375 " fill-opacity="1" fill-rule="evenodd"/></g></svg>