<svg xmlns="http://www.w3.org/2000/svg" xmlns:xlink="http://www.w3.org/1999/xlink" width="500" zoomAndPan="magnify" viewBox="0 0 375 374.999991" height="500" preserveAspectRatio="xMidYMid meet" version="1.0"><path fill="#1eeadb" d="M 291.464844 95.695312 C 272.34375 86.921875 251.835938 80.457031 230.398438 76.753906 C 230.007812 76.683594 229.617188 76.863281 229.417969 77.21875 C 226.78125 81.910156 223.859375 88.027344 221.8125 92.835938 C 198.753906 89.386719 175.816406 89.386719 153.230469 92.835938 C 151.183594 87.921875 148.15625 81.910156 145.507812 77.21875 C 145.304688 76.875 144.917969 76.695312 144.527344 76.753906 C 123.097656 80.445312 102.59375 86.910156 83.460938 95.695312 C 83.296875 95.765625 83.152344 95.886719 83.058594 96.039062 C 44.167969 154.144531 33.511719 210.820312 38.738281 266.792969 C 38.761719 267.066406 38.917969 267.328125 39.128906 267.496094 C 64.789062 286.339844 89.644531 297.78125 114.042969 305.363281 C 114.429688 305.484375 114.84375 305.339844 115.09375 305.019531 C 120.863281 297.140625 126.007812 288.828125 130.417969 280.089844 C 130.679688 279.578125 130.429688 278.972656 129.898438 278.769531 C 121.738281 275.675781 113.96875 271.902344 106.496094 267.613281 C 105.90625 267.269531 105.859375 266.425781 106.402344 266.019531 C 107.976562 264.84375 109.546875 263.617188 111.050781 262.378906 C 111.320312 262.152344 111.699219 262.105469 112.019531 262.246094 C 161.117188 284.664062 214.269531 284.664062 262.785156 262.246094 C 263.105469 262.089844 263.484375 262.140625 263.769531 262.363281 C 265.269531 263.605469 266.84375 264.84375 268.425781 266.019531 C 268.96875 266.425781 268.9375 267.269531 268.34375 267.613281 C 260.871094 271.984375 253.101562 275.675781 244.929688 278.757812 C 244.398438 278.960938 244.164062 279.578125 244.421875 280.089844 C 248.929688 288.816406 254.070312 297.125 259.734375 305.007812 C 259.972656 305.339844 260.398438 305.484375 260.789062 305.363281 C 285.300781 297.78125 310.15625 286.339844 335.816406 267.496094 C 336.042969 267.328125 336.183594 267.082031 336.207031 266.808594 C 342.464844 202.09375 325.730469 145.882812 291.851562 96.050781 C 291.769531 95.886719 291.628906 95.765625 291.464844 95.695312 Z M 137.75 232.710938 C 122.96875 232.710938 110.789062 219.140625 110.789062 202.476562 C 110.789062 185.808594 122.734375 172.238281 137.75 172.238281 C 152.886719 172.238281 164.949219 185.929688 164.710938 202.476562 C 164.710938 219.140625 152.769531 232.710938 137.75 232.710938 Z M 237.433594 232.710938 C 222.652344 232.710938 210.472656 219.140625 210.472656 202.476562 C 210.472656 185.808594 222.417969 172.238281 237.433594 172.238281 C 252.570312 172.238281 264.632812 185.929688 264.394531 202.476562 C 264.394531 219.140625 252.570312 232.710938 237.433594 232.710938 Z M 237.433594 232.710938 " fill-opacity="1" fill-rule="nonzero"/></svg>