<svg xmlns="http://www.w3.org/2000/svg" xmlns:xlink="http://www.w3.org/1999/xlink" width="500" zoomAndPan="magnify" viewBox="0 0 375 374.999991" height="500" preserveAspectRatio="xMidYMid meet" version="1.0"><path fill="#1eeadb" d="M 158.054688 197.421875 C 176.109375 207.839844 185.132812 213.050781 195.046875 213.058594 C 204.960938 213.066406 213.996094 207.875 232.066406 197.484375 L 347.257812 131.269531 C 352.457031 128.28125 355.664062 122.742188 355.664062 116.742188 C 355.664062 110.742188 352.457031 105.203125 347.257812 102.214844 L 232.023438 35.976562 C 213.972656 25.597656 204.949219 20.410156 195.046875 20.414062 C 185.140625 20.417969 176.121094 25.613281 158.078125 36.003906 L 59.015625 93.050781 C 58.28125 93.472656 57.914062 93.683594 57.570312 93.882812 C 23.734375 113.695312 2.828125 149.859375 2.546875 189.066406 C 2.542969 189.464844 2.542969 189.886719 2.542969 190.734375 C 2.542969 191.582031 2.542969 192.003906 2.546875 192.398438 C 2.824219 231.566406 23.6875 267.695312 57.464844 287.523438 C 57.804688 287.722656 58.171875 287.933594 58.90625 288.355469 L 120.957031 324.183594 C 157.113281 345.0625 175.191406 355.5 195.046875 355.503906 C 214.898438 355.511719 232.984375 345.085938 269.15625 324.234375 L 334.660156 286.472656 C 352.773438 276.03125 361.828125 270.8125 366.800781 262.203125 C 371.773438 253.597656 371.773438 243.144531 371.773438 222.238281 L 371.773438 181.855469 C 371.773438 176.054688 368.632812 170.710938 363.566406 167.886719 C 358.664062 165.15625 352.6875 165.195312 347.820312 167.992188 L 213.503906 245.203125 C 204.492188 250.382812 199.988281 252.972656 195.042969 252.976562 C 190.097656 252.976562 185.589844 250.390625 176.574219 245.214844 L 85.664062 193.03125 C 81.113281 190.417969 78.835938 189.109375 77.007812 188.875 C 72.835938 188.335938 68.828125 190.671875 67.238281 194.5625 C 66.542969 196.273438 66.558594 198.898438 66.585938 204.148438 C 66.605469 208.011719 66.617188 209.945312 66.976562 211.722656 C 67.785156 215.703125 69.882812 219.308594 72.9375 221.984375 C 74.304688 223.179688 75.976562 224.144531 79.328125 226.078125 L 176.523438 282.175781 C 185.5625 287.390625 190.082031 290 195.042969 290 C 200.007812 290.003906 204.527344 287.398438 213.566406 282.183594 L 332.703125 213.511719 C 335.789062 211.730469 337.335938 210.839844 338.492188 211.511719 C 339.648438 212.179688 339.648438 213.960938 339.648438 217.527344 L 339.648438 235.84375 C 339.648438 241.070312 339.648438 243.683594 338.40625 245.835938 C 337.164062 247.988281 334.898438 249.292969 330.371094 251.902344 L 232.109375 308.542969 C 214.019531 318.972656 204.972656 324.1875 195.046875 324.183594 C 185.117188 324.175781 176.078125 318.957031 157.996094 308.511719 L 66.0625 255.40625 C 65.769531 255.234375 65.625 255.152344 65.488281 255.070312 C 46.210938 243.808594 34.320312 223.203125 34.207031 200.875 C 34.207031 200.71875 34.207031 200.550781 34.207031 200.210938 L 34.207031 183.398438 C 34.207031 171.074219 40.769531 159.679688 51.433594 153.5 C 60.855469 148.039062 72.476562 148.027344 81.910156 153.472656 Z M 158.054688 197.421875 " fill-opacity="1" fill-rule="nonzero"/></svg>