<svg xmlns="http://www.w3.org/2000/svg" xmlns:xlink="http://www.w3.org/1999/xlink" width="500" zoomAndPan="magnify" viewBox="0 0 375 374.999991" height="500" preserveAspectRatio="xMidYMid meet" version="1.0"><defs><clipPath id="5c6ccdcd7e"><path d="M 4 9.203125 L 371 9.203125 L 371 365.453125 L 4 365.453125 Z M 4 9.203125 " clip-rule="nonzero"/></clipPath></defs><g clip-path="url(#5c6ccdcd7e)"><path fill="#1eeadb" d="M 345.746094 100.222656 C 341.777344 93.351562 337.378906 86.769531 332.550781 80.472656 C 327.722656 74.175781 322.503906 68.222656 316.898438 62.609375 C 311.289062 56.996094 305.339844 51.769531 299.050781 46.933594 C 292.757812 42.101562 286.179688 37.695312 279.3125 33.71875 C 272.390625 29.664062 265.230469 26.09375 257.828125 23.003906 C 250.429688 19.910156 242.851562 17.332031 235.105469 15.261719 C 227.355469 13.1875 219.503906 11.648438 211.546875 10.632812 C 203.589844 9.621094 195.601562 9.144531 187.582031 9.203125 C 179.550781 9.140625 171.554688 9.613281 163.589844 10.625 C 155.628906 11.636719 147.765625 13.179688 140.011719 15.25 C 132.253906 17.320312 124.671875 19.902344 117.261719 22.992188 C 109.851562 26.085938 102.683594 29.660156 95.757812 33.71875 C 88.882812 37.691406 82.296875 42.09375 76 46.925781 C 69.703125 51.761719 63.746094 56.984375 58.132812 62.597656 C 52.519531 68.210938 47.296875 74.167969 42.460938 80.464844 C 37.628906 86.761719 33.226562 93.351562 29.253906 100.222656 C 25.199219 107.144531 21.628906 114.304688 18.539062 121.707031 C 15.445312 129.109375 12.867188 136.683594 10.796875 144.433594 C 8.722656 152.183594 7.183594 160.035156 6.167969 167.992188 C 5.152344 175.949219 4.675781 183.9375 4.738281 191.957031 C 4.691406 196.75 4.835938 201.535156 5.179688 206.316406 C 5.519531 211.09375 6.050781 215.851562 6.777344 220.589844 C 7.5 225.328125 8.417969 230.027344 9.523438 234.691406 C 10.628906 239.351562 11.921875 243.964844 13.398438 248.523438 C 14.878906 253.078125 16.539062 257.570312 18.378906 261.996094 C 20.222656 266.417969 22.242188 270.761719 24.433594 275.019531 C 26.628906 279.28125 28.992188 283.445312 31.523438 287.515625 C 34.054688 291.585938 36.742188 295.546875 39.59375 299.398438 C 45.117188 307.105469 51.210938 314.332031 57.878906 321.070312 C 64.546875 327.8125 71.707031 333.980469 79.359375 339.585938 C 87.007812 345.1875 95.050781 350.152344 103.488281 354.472656 C 111.929688 358.796875 120.65625 362.429688 129.671875 365.367188 C 130.472656 365.613281 131.292969 365.761719 132.132812 365.8125 C 132.96875 365.863281 133.800781 365.816406 134.628906 365.671875 C 135.457031 365.53125 136.253906 365.292969 137.023438 364.960938 C 137.796875 364.628906 138.519531 364.210938 139.191406 363.707031 C 140.199219 362.800781 140.972656 361.726562 141.511719 360.480469 C 142.050781 359.234375 142.304688 357.933594 142.277344 356.578125 L 142.152344 343.722656 C 142.066406 335.625 142.027344 328.589844 142.027344 322.613281 L 136.570312 323.628906 C 132.191406 324.328125 127.789062 324.605469 123.359375 324.464844 C 117.796875 324.371094 112.28125 323.816406 106.8125 322.808594 C 103.910156 322.273438 101.109375 321.402344 98.414062 320.195312 C 95.722656 318.992188 93.207031 317.484375 90.875 315.675781 C 88.425781 313.824219 86.308594 311.652344 84.523438 309.15625 C 82.738281 306.660156 81.367188 303.953125 80.40625 301.039062 L 78.035156 295.5625 C 76.027344 291.214844 73.53125 287.167969 70.546875 283.421875 C 67.835938 279.558594 64.382812 276.542969 60.1875 274.382812 L 58.53125 273.1875 C 57.386719 272.363281 56.359375 271.410156 55.445312 270.335938 C 54.5625 269.332031 53.847656 268.222656 53.304688 267 C 52.832031 265.882812 53.230469 264.96875 54.5 264.253906 C 56.71875 263.363281 59.019531 263.007812 61.402344 263.1875 L 66.160156 263.898438 C 70.453125 265.046875 74.382812 266.949219 77.945312 269.605469 C 82.722656 272.859375 86.570312 276.984375 89.480469 281.976562 C 91.054688 284.949219 92.960938 287.691406 95.195312 290.207031 C 97.429688 292.722656 99.929688 294.933594 102.695312 296.847656 C 104.976562 298.457031 107.445312 299.699219 110.101562 300.574219 C 112.757812 301.445312 115.484375 301.910156 118.277344 301.964844 C 122.839844 302.023438 127.363281 301.625 131.84375 300.769531 C 135.554688 300.007812 139.121094 298.820312 142.542969 297.203125 C 142.738281 294.894531 143.136719 292.621094 143.742188 290.382812 C 144.347656 288.144531 145.148438 285.980469 146.144531 283.886719 C 147.140625 281.792969 148.316406 279.804688 149.667969 277.925781 C 151.023438 276.042969 152.535156 274.296875 154.203125 272.6875 C 145.964844 271.882812 137.835938 270.457031 129.8125 268.410156 C 121.964844 266.25 114.507812 263.15625 107.4375 259.121094 C 99.992188 255.074219 93.605469 249.761719 88.269531 243.179688 C 82.570312 235.628906 78.410156 227.308594 75.789062 218.21875 C 72.339844 206.582031 70.710938 194.695312 70.902344 182.5625 C 70.804688 178.058594 71.144531 173.589844 71.917969 169.15625 C 72.6875 164.71875 73.878906 160.402344 75.492188 156.199219 C 77.105469 151.992188 79.109375 147.984375 81.5 144.171875 C 83.894531 140.359375 86.632812 136.8125 89.714844 133.53125 C 88.265625 129.625 87.207031 125.617188 86.542969 121.503906 C 85.875 117.390625 85.613281 113.253906 85.753906 109.089844 C 85.898438 104.929688 86.441406 100.816406 87.386719 96.761719 C 88.332031 92.703125 89.660156 88.777344 91.371094 84.980469 C 94.867188 84.414062 98.363281 84.40625 101.863281 84.953125 C 105.359375 85.503906 108.6875 86.582031 111.839844 88.1875 C 118.695312 90.738281 125.316406 93.792969 131.703125 97.355469 C 135.910156 99.886719 139.28125 102.023438 141.8125 103.773438 C 149.253906 101.71875 156.800781 100.175781 164.453125 99.140625 C 172.101562 98.101562 179.789062 97.585938 187.507812 97.585938 C 195.230469 97.585938 202.914062 98.101562 210.566406 99.140625 C 218.214844 100.175781 225.761719 101.71875 233.207031 103.773438 L 242.246094 98.066406 C 249.210938 93.882812 256.511719 90.394531 264.140625 87.601562 C 267.128906 86.148438 270.273438 85.195312 273.566406 84.75 C 276.863281 84.300781 280.144531 84.378906 283.414062 84.980469 C 285.164062 88.765625 286.523438 92.683594 287.5 96.734375 C 288.472656 100.789062 289.042969 104.898438 289.207031 109.066406 C 289.371094 113.230469 289.125 117.371094 288.472656 121.488281 C 287.816406 125.605469 286.769531 129.621094 285.320312 133.53125 C 288.402344 136.8125 291.140625 140.359375 293.535156 144.171875 C 295.925781 147.984375 297.929688 151.996094 299.542969 156.199219 C 301.152344 160.402344 302.347656 164.722656 303.117188 169.15625 C 303.890625 173.589844 304.230469 178.058594 304.132812 182.5625 C 304.320312 194.75 302.691406 206.6875 299.246094 218.378906 C 296.652344 227.511719 292.453125 235.832031 286.640625 243.339844 C 281.222656 249.84375 274.800781 255.121094 267.367188 259.175781 C 260.296875 263.207031 252.839844 266.300781 244.992188 268.464844 C 236.96875 270.515625 228.839844 271.949219 220.601562 272.761719 C 222.8125 274.953125 224.761719 277.363281 226.445312 279.988281 C 228.125 282.613281 229.5 285.386719 230.570312 288.316406 C 231.640625 291.242188 232.378906 294.253906 232.78125 297.34375 C 233.1875 300.433594 233.253906 303.53125 232.972656 306.636719 L 232.972656 356.84375 C 232.941406 358.191406 233.183594 359.484375 233.703125 360.726562 C 234.222656 361.96875 234.972656 363.050781 235.953125 363.976562 C 236.609375 364.480469 237.320312 364.902344 238.082031 365.234375 C 238.839844 365.570312 239.628906 365.808594 240.445312 365.953125 C 241.265625 366.097656 242.089844 366.144531 242.917969 366.089844 C 243.746094 366.035156 244.554688 365.882812 245.347656 365.632812 C 254.363281 362.695312 263.089844 359.066406 271.527344 354.742188 C 279.96875 350.417969 288.011719 345.457031 295.660156 339.851562 C 303.308594 334.25 310.46875 328.078125 317.136719 321.339844 C 323.808594 314.597656 329.902344 307.375 335.421875 299.664062 C 338.277344 295.804688 340.972656 291.832031 343.507812 287.753906 C 346.042969 283.671875 348.40625 279.5 350.605469 275.226562 C 352.800781 270.953125 354.820312 266.601562 356.660156 262.167969 C 358.503906 257.730469 360.164062 253.226562 361.640625 248.660156 C 363.117188 244.089844 364.410156 239.464844 365.511719 234.792969 C 366.613281 230.117188 367.523438 225.40625 368.246094 220.65625 C 368.964844 215.910156 369.492188 211.140625 369.828125 206.347656 C 370.160156 201.554688 370.300781 196.757812 370.242188 191.957031 C 370.304688 183.9375 369.828125 175.949219 368.816406 167.992188 C 367.800781 160.035156 366.261719 152.183594 364.191406 144.4375 C 362.121094 136.6875 359.542969 129.113281 356.453125 121.710938 C 353.367188 114.308594 349.796875 107.144531 345.746094 100.222656 Z M 345.746094 100.222656 " fill-opacity="1" fill-rule="nonzero"/></g></svg>