<svg xmlns="http://www.w3.org/2000/svg" xmlns:xlink="http://www.w3.org/1999/xlink" width="300" zoomAndPan="magnify" viewBox="0 0 224.87999 56.249996" height="75" preserveAspectRatio="xMidYMid meet" version="1.0"><defs><g/><clipPath id="24cb500336"><path d="M 6.015625 5.484375 L 33 5.484375 L 33 50.96875 L 6.015625 50.96875 Z M 6.015625 5.484375 " clip-rule="nonzero"/></clipPath><clipPath id="9c3b70787f"><path d="M 25.738281 4.597656 L 52.390625 4.597656 L 52.390625 49.523438 L 25.738281 49.523438 Z M 25.738281 4.597656 " clip-rule="nonzero"/></clipPath></defs><g fill="#a6fbb2" fill-opacity="1"><g transform="translate(85.128979, 33.678288)"><g><path d="M 30.828125 0 L 21.1875 0 L 10.265625 -13.078125 L 10.265625 0 L 2.15625 0 L 2.15625 -19.328125 L 11.796875 -19.328125 L 22.71875 -6.3125 L 22.71875 -19.328125 L 30.828125 -19.328125 Z M 30.828125 0 "/></g></g></g><g fill="#a6fbb2" fill-opacity="1"><g transform="translate(116.442363, 33.678288)"><g><path d="M 18.859375 0 L 10.75 0 L 10.75 -9.15625 L 0.203125 -19.328125 L 9.1875 -19.328125 L 14.796875 -13.546875 L 20.40625 -19.328125 L 29.375 -19.328125 L 18.859375 -9.15625 Z M 18.859375 0 "/></g></g></g><g fill="#a6fbb2" fill-opacity="1"><g transform="translate(144.363357, 33.678288)"><g><path d="M 33.875 0 L 23.34375 0 L 15.0625 -6.46875 L 10.265625 -3.1875 L 10.265625 0 L 2.15625 0 L 2.15625 -19.328125 L 10.265625 -19.328125 L 10.265625 -10.375 L 23.265625 -19.328125 L 33.875 -19.328125 L 20.03125 -9.875 Z M 33.875 0 "/></g></g></g><g fill="#a6fbb2" fill-opacity="1"><g transform="translate(176.780616, 33.678288)"><g><path d="M 25.421875 0 L 2.15625 0 L 2.15625 -19.328125 L 24.359375 -19.328125 L 24.359375 -14.546875 L 10.265625 -14.546875 L 10.265625 -11.515625 L 22.171875 -11.515625 L 22.171875 -7.796875 L 10.265625 -7.796875 L 10.265625 -4.78125 L 25.421875 -4.78125 Z M 25.421875 0 "/></g></g></g><g fill="#4289fa" fill-opacity="1"><g transform="translate(106.164904, 47.000655)"><g><path d="M 3.3125 0 L 0.703125 0 L 0.703125 -6.234375 L 7.859375 -6.234375 L 7.859375 -4.703125 L 3.3125 -4.703125 L 3.3125 -3.71875 L 7.15625 -3.71875 L 7.15625 -2.515625 L 3.3125 -2.515625 Z M 3.3125 0 "/></g></g></g><g fill="#4289fa" fill-opacity="1"><g transform="translate(116.161345, 47.000655)"><g><path d="M 3.3125 0 L 0.703125 0 L 0.703125 -6.234375 L 3.3125 -6.234375 Z M 3.3125 0 "/></g></g></g><g fill="#4289fa" fill-opacity="1"><g transform="translate(121.953268, 47.000655)"><g><path d="M 9.953125 0 L 6.84375 0 L 3.3125 -4.21875 L 3.3125 0 L 0.703125 0 L 0.703125 -6.234375 L 3.8125 -6.234375 L 7.34375 -2.046875 L 7.34375 -6.234375 L 9.953125 -6.234375 Z M 9.953125 0 "/></g></g></g><g fill="#4289fa" fill-opacity="1"><g transform="translate(134.384592, 47.000655)"><g><path d="M 10.484375 0 L 7.828125 0 L 7.234375 -1.015625 L 3.3125 -1.015625 L 2.71875 0 L 0.0625 0 L 4.0625 -6.234375 L 6.484375 -6.234375 Z M 6.359375 -2.5625 L 5.28125 -4.453125 L 4.1875 -2.5625 Z M 6.359375 -2.5625 "/></g></g></g><g fill="#4289fa" fill-opacity="1"><g transform="translate(146.71156, 47.000655)"><g><path d="M 9.953125 0 L 6.84375 0 L 3.3125 -4.21875 L 3.3125 0 L 0.703125 0 L 0.703125 -6.234375 L 3.8125 -6.234375 L 7.34375 -2.046875 L 7.34375 -6.234375 L 9.953125 -6.234375 Z M 9.953125 0 "/></g></g></g><g fill="#4289fa" fill-opacity="1"><g transform="translate(159.142881, 47.000655)"><g><path d="M 4.71875 0.140625 C 3.175781 0.140625 2.039062 -0.175781 1.3125 -0.8125 C 0.664062 -1.375 0.34375 -2.140625 0.34375 -3.109375 C 0.34375 -4.085938 0.664062 -4.859375 1.3125 -5.421875 C 2.039062 -6.046875 3.175781 -6.359375 4.71875 -6.359375 C 5.625 -6.359375 6.367188 -6.253906 6.953125 -6.046875 C 7.546875 -5.835938 8.003906 -5.550781 8.328125 -5.1875 C 8.660156 -4.832031 8.882812 -4.425781 9 -3.96875 L 6.234375 -3.96875 C 5.960938 -4.445312 5.457031 -4.6875 4.71875 -4.6875 C 4.082031 -4.6875 3.617188 -4.503906 3.328125 -4.140625 C 3.085938 -3.847656 2.96875 -3.503906 2.96875 -3.109375 C 2.96875 -2.710938 3.085938 -2.367188 3.328125 -2.078125 C 3.617188 -1.710938 4.082031 -1.53125 4.71875 -1.53125 C 5.457031 -1.53125 5.960938 -1.773438 6.234375 -2.265625 L 9 -2.265625 C 8.882812 -1.796875 8.660156 -1.378906 8.328125 -1.015625 C 8.003906 -0.660156 7.546875 -0.378906 6.953125 -0.171875 C 6.367188 0.0351562 5.625 0.140625 4.71875 0.140625 Z M 4.71875 0.140625 "/></g></g></g><g fill="#4289fa" fill-opacity="1"><g transform="translate(170.265452, 47.000655)"><g><path d="M 8.203125 0 L 0.703125 0 L 0.703125 -6.234375 L 7.859375 -6.234375 L 7.859375 -4.703125 L 3.3125 -4.703125 L 3.3125 -3.71875 L 7.15625 -3.71875 L 7.15625 -2.515625 L 3.3125 -2.515625 L 3.3125 -1.546875 L 8.203125 -1.546875 Z M 8.203125 0 "/></g></g></g><path fill="#4289fa" d="M 17.804688 13.539062 L 17.804688 38.84375 C 18.144531 39.1875 18.484375 39.527344 18.855469 39.867188 C 19.753906 40.640625 20.742188 41.320312 21.828125 41.878906 L 21.828125 23.253906 L 40.636719 42.0625 L 40.636719 16.753906 C 40.296875 16.414062 39.957031 16.074219 39.585938 15.734375 C 38.6875 14.960938 37.699219 14.28125 36.613281 13.722656 L 36.613281 32.316406 L 19.507812 15.238281 L 17.804688 13.539062 " fill-opacity="1" fill-rule="nonzero"/><g clip-path="url(#24cb500336)"><path fill="#4289fa" d="M 10.039062 27.800781 C 10.039062 19.972656 14.742188 13.230469 21.488281 10.257812 L 32.5625 21.335938 L 32.5625 15.640625 L 30.890625 13.972656 L 22.507812 5.585938 C 12.976562 8.464844 6.015625 17.34375 6.015625 27.800781 C 6.015625 40.609375 16.414062 51.003906 29.222656 51.003906 C 30.457031 51.003906 31.695312 50.910156 32.871094 50.726562 L 29.128906 46.980469 C 18.609375 46.921875 10.039062 38.351562 10.039062 27.800781 " fill-opacity="1" fill-rule="nonzero"/></g><g clip-path="url(#9c3b70787f)"><path fill="#4289fa" d="M 29.222656 4.597656 C 28.570312 4.597656 27.953125 4.628906 27.300781 4.691406 L 31.386719 8.742188 C 40.945312 9.824219 48.402344 17.960938 48.402344 27.800781 C 48.402344 35.101562 44.289062 41.476562 38.285156 44.691406 L 25.878906 32.285156 L 25.878906 38.011719 L 28.816406 40.949219 L 34.203125 46.332031 L 37.386719 49.519531 C 46.175781 46.207031 52.425781 37.730469 52.425781 27.800781 C 52.425781 14.992188 42.027344 4.597656 29.222656 4.597656 " fill-opacity="1" fill-rule="nonzero"/></g></svg>