<svg xmlns="http://www.w3.org/2000/svg" xmlns:xlink="http://www.w3.org/1999/xlink" width="300" zoomAndPan="magnify" viewBox="0 0 224.87999 56.249996" height="75" preserveAspectRatio="xMidYMid meet" version="1.0"><defs><g/><clipPath id="8cd2cfdc15"><path d="M 6.007812 5.476562 L 32.949219 5.476562 L 32.949219 50.882812 L 6.007812 50.882812 Z M 6.007812 5.476562 " clip-rule="nonzero"/></clipPath><clipPath id="e3b66ce655"><path d="M 25.695312 4.589844 L 52.304688 4.589844 L 52.304688 49.441406 L 25.695312 49.441406 Z M 25.695312 4.589844 " clip-rule="nonzero"/></clipPath></defs><g fill="#a6fbb2" fill-opacity="1"><g transform="translate(85.128979, 33.678288)"><g><path d="M 30.828125 0 L 21.1875 0 L 10.265625 -13.078125 L 10.265625 0 L 2.15625 0 L 2.15625 -19.328125 L 11.796875 -19.328125 L 22.71875 -6.3125 L 22.71875 -19.328125 L 30.828125 -19.328125 Z M 30.828125 0 "/></g></g></g><g fill="#a6fbb2" fill-opacity="1"><g transform="translate(116.442363, 33.678288)"><g><path d="M 18.859375 0 L 10.75 0 L 10.75 -9.15625 L 0.203125 -19.328125 L 9.1875 -19.328125 L 14.796875 -13.546875 L 20.40625 -19.328125 L 29.375 -19.328125 L 18.859375 -9.15625 Z M 18.859375 0 "/></g></g></g><g fill="#a6fbb2" fill-opacity="1"><g transform="translate(144.363357, 33.678288)"><g><path d="M 33.875 0 L 23.34375 0 L 15.0625 -6.46875 L 10.265625 -3.1875 L 10.265625 0 L 2.15625 0 L 2.15625 -19.328125 L 10.265625 -19.328125 L 10.265625 -10.375 L 23.265625 -19.328125 L 33.875 -19.328125 L 20.03125 -9.875 Z M 33.875 0 "/></g></g></g><g fill="#a6fbb2" fill-opacity="1"><g transform="translate(176.780616, 33.678288)"><g><path d="M 25.421875 0 L 2.15625 0 L 2.15625 -19.328125 L 24.359375 -19.328125 L 24.359375 -14.546875 L 10.265625 -14.546875 L 10.265625 -11.515625 L 22.171875 -11.515625 L 22.171875 -7.796875 L 10.265625 -7.796875 L 10.265625 -4.78125 L 25.421875 -4.78125 Z M 25.421875 0 "/></g></g></g><g fill="#f0f8ff" fill-opacity="1"><g transform="translate(106.164904, 47.000655)"><g><path d="M 3.3125 0 L 0.703125 0 L 0.703125 -6.234375 L 7.859375 -6.234375 L 7.859375 -4.703125 L 3.3125 -4.703125 L 3.3125 -3.71875 L 7.15625 -3.71875 L 7.15625 -2.515625 L 3.3125 -2.515625 Z M 3.3125 0 "/></g></g></g><g fill="#f0f8ff" fill-opacity="1"><g transform="translate(116.161345, 47.000655)"><g><path d="M 3.3125 0 L 0.703125 0 L 0.703125 -6.234375 L 3.3125 -6.234375 Z M 3.3125 0 "/></g></g></g><g fill="#f0f8ff" fill-opacity="1"><g transform="translate(121.953268, 47.000655)"><g><path d="M 9.953125 0 L 6.84375 0 L 3.3125 -4.21875 L 3.3125 0 L 0.703125 0 L 0.703125 -6.234375 L 3.8125 -6.234375 L 7.34375 -2.046875 L 7.34375 -6.234375 L 9.953125 -6.234375 Z M 9.953125 0 "/></g></g></g><g fill="#f0f8ff" fill-opacity="1"><g transform="translate(134.384592, 47.000655)"><g><path d="M 10.484375 0 L 7.828125 0 L 7.234375 -1.015625 L 3.3125 -1.015625 L 2.71875 0 L 0.0625 0 L 4.0625 -6.234375 L 6.484375 -6.234375 Z M 6.359375 -2.5625 L 5.28125 -4.453125 L 4.1875 -2.5625 Z M 6.359375 -2.5625 "/></g></g></g><g fill="#f0f8ff" fill-opacity="1"><g transform="translate(146.71156, 47.000655)"><g><path d="M 9.953125 0 L 6.84375 0 L 3.3125 -4.21875 L 3.3125 0 L 0.703125 0 L 0.703125 -6.234375 L 3.8125 -6.234375 L 7.34375 -2.046875 L 7.34375 -6.234375 L 9.953125 -6.234375 Z M 9.953125 0 "/></g></g></g><g fill="#f0f8ff" fill-opacity="1"><g transform="translate(159.142881, 47.000655)"><g><path d="M 4.71875 0.140625 C 3.175781 0.140625 2.039062 -0.175781 1.3125 -0.8125 C 0.664062 -1.375 0.34375 -2.140625 0.34375 -3.109375 C 0.34375 -4.085938 0.664062 -4.859375 1.3125 -5.421875 C 2.039062 -6.046875 3.175781 -6.359375 4.71875 -6.359375 C 5.625 -6.359375 6.367188 -6.253906 6.953125 -6.046875 C 7.546875 -5.835938 8.003906 -5.550781 8.328125 -5.1875 C 8.660156 -4.832031 8.882812 -4.425781 9 -3.96875 L 6.234375 -3.96875 C 5.960938 -4.445312 5.457031 -4.6875 4.71875 -4.6875 C 4.082031 -4.6875 3.617188 -4.503906 3.328125 -4.140625 C 3.085938 -3.847656 2.96875 -3.503906 2.96875 -3.109375 C 2.96875 -2.710938 3.085938 -2.367188 3.328125 -2.078125 C 3.617188 -1.710938 4.082031 -1.53125 4.71875 -1.53125 C 5.457031 -1.53125 5.960938 -1.773438 6.234375 -2.265625 L 9 -2.265625 C 8.882812 -1.796875 8.660156 -1.378906 8.328125 -1.015625 C 8.003906 -0.660156 7.546875 -0.378906 6.953125 -0.171875 C 6.367188 0.0351562 5.625 0.140625 4.71875 0.140625 Z M 4.71875 0.140625 "/></g></g></g><g fill="#f0f8ff" fill-opacity="1"><g transform="translate(170.265452, 47.000655)"><g><path d="M 8.203125 0 L 0.703125 0 L 0.703125 -6.234375 L 7.859375 -6.234375 L 7.859375 -4.703125 L 3.3125 -4.703125 L 3.3125 -3.71875 L 7.15625 -3.71875 L 7.15625 -2.515625 L 3.3125 -2.515625 L 3.3125 -1.546875 L 8.203125 -1.546875 Z M 8.203125 0 "/></g></g></g><path fill="#a6fbb2" d="M 17.777344 13.515625 L 17.777344 38.78125 C 18.117188 39.121094 18.457031 39.460938 18.828125 39.800781 C 19.722656 40.570312 20.710938 41.25 21.792969 41.808594 L 21.792969 23.214844 L 40.570312 41.992188 L 40.570312 16.726562 C 40.230469 16.386719 39.890625 16.046875 39.519531 15.707031 C 38.625 14.9375 37.636719 14.257812 36.554688 13.699219 L 36.554688 32.265625 L 19.476562 15.214844 L 17.777344 13.515625 " fill-opacity="1" fill-rule="nonzero"/><g clip-path="url(#8cd2cfdc15)"><path fill="#a6fbb2" d="M 10.023438 27.753906 C 10.023438 19.941406 14.71875 13.207031 21.453125 10.242188 L 32.511719 21.300781 L 32.511719 15.617188 L 22.472656 5.578125 C 12.957031 8.449219 6.007812 17.3125 6.007812 27.753906 C 6.007812 40.542969 16.386719 50.917969 29.175781 50.917969 C 30.410156 50.917969 31.644531 50.828125 32.820312 50.640625 L 29.082031 46.902344 C 18.582031 46.84375 10.023438 38.285156 10.023438 27.753906 " fill-opacity="1" fill-rule="nonzero"/></g><g clip-path="url(#e3b66ce655)"><path fill="#a6fbb2" d="M 29.175781 4.589844 C 28.527344 4.589844 27.910156 4.621094 27.257812 4.683594 L 31.335938 8.726562 C 40.878906 9.808594 48.324219 17.933594 48.324219 27.753906 C 48.324219 35.042969 44.214844 41.40625 38.222656 44.617188 L 25.839844 32.234375 L 25.839844 37.945312 L 28.773438 40.882812 L 34.148438 46.253906 L 37.328125 49.4375 C 46.101562 46.132812 52.339844 37.667969 52.339844 27.753906 C 52.339844 14.96875 41.960938 4.589844 29.175781 4.589844 " fill-opacity="1" fill-rule="nonzero"/></g></svg>