<svg xmlns="http://www.w3.org/2000/svg" xmlns:xlink="http://www.w3.org/1999/xlink" width="1500" zoomAndPan="magnify" viewBox="0 0 1125 374.999991" height="500" preserveAspectRatio="xMidYMid meet" version="1.0"><defs><g/></defs><g fill="#1eeadb" fill-opacity="1"><g transform="translate(10.152911, 216.383933)"><g><path d="M 9.5 -95.046875 L 54.453125 -95.046875 C 64.859375 -95.046875 74.085938 -93.097656 82.140625 -89.203125 C 90.203125 -85.316406 96.445312 -79.796875 100.875 -72.640625 C 105.3125 -65.492188 107.53125 -57.125 107.53125 -47.53125 C 107.53125 -37.925781 105.3125 -29.546875 100.875 -22.390625 C 96.445312 -15.242188 90.203125 -9.722656 82.140625 -5.828125 C 74.085938 -1.941406 64.859375 0 54.453125 0 L 9.5 0 Z M 53.359375 -21.453125 C 61.503906 -21.453125 68.039062 -23.757812 72.96875 -28.375 C 77.90625 -32.988281 80.375 -39.375 80.375 -47.53125 C 80.375 -55.675781 77.90625 -62.054688 72.96875 -66.671875 C 68.039062 -71.285156 61.503906 -73.59375 53.359375 -73.59375 L 36.390625 -73.59375 L 36.390625 -21.453125 Z M 53.359375 -21.453125 "/></g></g></g><g fill="#1eeadb" fill-opacity="1"><g transform="translate(122.304085, 216.383933)"><g><path d="M 73.1875 -18.46875 L 33 -18.46875 L 25.53125 0 L -1.90625 0 L 40.0625 -95.046875 L 66.53125 -95.046875 L 108.625 0 L 80.65625 0 Z M 65.3125 -38.296875 L 53.09375 -68.703125 L 40.875 -38.296875 Z M 65.3125 -38.296875 "/></g></g></g><g fill="#1eeadb" fill-opacity="1"><g transform="translate(229.024191, 216.383933)"><g><path d="M 52.953125 -95.046875 C 61.554688 -95.046875 69.023438 -93.617188 75.359375 -90.765625 C 81.691406 -87.921875 86.578125 -83.847656 90.015625 -78.546875 C 93.460938 -73.253906 95.1875 -67.03125 95.1875 -59.875 C 95.1875 -52.726562 93.460938 -46.53125 90.015625 -41.28125 C 86.578125 -36.03125 81.691406 -31.976562 75.359375 -29.125 C 69.023438 -26.269531 61.554688 -24.84375 52.953125 -24.84375 L 36.390625 -24.84375 L 36.390625 0 L 9.5 0 L 9.5 -95.046875 Z M 51.328125 -46.03125 C 56.847656 -46.03125 61.007812 -47.226562 63.8125 -49.625 C 66.625 -52.019531 68.03125 -55.4375 68.03125 -59.875 C 68.03125 -64.3125 66.625 -67.75 63.8125 -70.1875 C 61.007812 -72.632812 56.847656 -73.859375 51.328125 -73.859375 L 36.390625 -73.859375 L 36.390625 -46.03125 Z M 51.328125 -46.03125 "/></g></g></g><g fill="#1eeadb" fill-opacity="1"><g transform="translate(329.091276, 216.383933)"><g><path d="M 52.953125 -95.046875 C 61.554688 -95.046875 69.023438 -93.617188 75.359375 -90.765625 C 81.691406 -87.921875 86.578125 -83.847656 90.015625 -78.546875 C 93.460938 -73.253906 95.1875 -67.03125 95.1875 -59.875 C 95.1875 -52.726562 93.460938 -46.53125 90.015625 -41.28125 C 86.578125 -36.03125 81.691406 -31.976562 75.359375 -29.125 C 69.023438 -26.269531 61.554688 -24.84375 52.953125 -24.84375 L 36.390625 -24.84375 L 36.390625 0 L 9.5 0 L 9.5 -95.046875 Z M 51.328125 -46.03125 C 56.847656 -46.03125 61.007812 -47.226562 63.8125 -49.625 C 66.625 -52.019531 68.03125 -55.4375 68.03125 -59.875 C 68.03125 -64.3125 66.625 -67.75 63.8125 -70.1875 C 61.007812 -72.632812 56.847656 -73.859375 51.328125 -73.859375 L 36.390625 -73.859375 L 36.390625 -46.03125 Z M 51.328125 -46.03125 "/></g></g></g><g fill="#f0f8ff" fill-opacity="1"><g transform="translate(429.241137, 216.383933)"><g><path d="M 51.046875 -25.25 L 36.390625 -25.25 L 36.390625 0 L 9.5 0 L 9.5 -95.046875 L 52.953125 -95.046875 C 61.554688 -95.046875 69.023438 -93.617188 75.359375 -90.765625 C 81.691406 -87.921875 86.578125 -83.847656 90.015625 -78.546875 C 93.460938 -73.253906 95.1875 -67.03125 95.1875 -59.875 C 95.1875 -53 93.578125 -47.003906 90.359375 -41.890625 C 87.148438 -36.773438 82.554688 -32.769531 76.578125 -29.875 L 97.078125 0 L 68.296875 0 Z M 68.03125 -59.875 C 68.03125 -64.3125 66.625 -67.75 63.8125 -70.1875 C 61.007812 -72.632812 56.847656 -73.859375 51.328125 -73.859375 L 36.390625 -73.859375 L 36.390625 -46.03125 L 51.328125 -46.03125 C 56.847656 -46.03125 61.007812 -47.226562 63.8125 -49.625 C 66.625 -52.019531 68.03125 -55.4375 68.03125 -59.875 Z M 68.03125 -59.875 "/></g></g></g><g fill="#f0f8ff" fill-opacity="1"><g transform="translate(529.715574, 216.383933)"><g><path d="M 73.1875 -18.46875 L 33 -18.46875 L 25.53125 0 L -1.90625 0 L 40.0625 -95.046875 L 66.53125 -95.046875 L 108.625 0 L 80.65625 0 Z M 65.3125 -38.296875 L 53.09375 -68.703125 L 40.875 -38.296875 Z M 65.3125 -38.296875 "/></g></g></g><g fill="#f0f8ff" fill-opacity="1"><g transform="translate(636.43568, 216.383933)"><g><path d="M 99.9375 -95.046875 L 99.9375 0 L 77.796875 0 L 35.84375 -50.640625 L 35.84375 0 L 9.5 0 L 9.5 -95.046875 L 31.640625 -95.046875 L 73.59375 -44.40625 L 73.59375 -95.046875 Z M 99.9375 -95.046875 "/></g></g></g><g fill="#f0f8ff" fill-opacity="1"><g transform="translate(745.871346, 216.383933)"><g><path d="M 46.171875 -34.484375 L 36.125 -23.765625 L 36.125 0 L 9.5 0 L 9.5 -95.046875 L 36.125 -95.046875 L 36.125 -55.53125 L 72.921875 -95.046875 L 102.515625 -95.046875 L 63.6875 -52.953125 L 104.546875 0 L 73.328125 0 Z M 46.171875 -34.484375 "/></g></g></g><g fill="#f0f8ff" fill-opacity="1"><g transform="translate(847.975085, 216.383933)"><g><path d="M 9.5 -95.046875 L 36.390625 -95.046875 L 36.390625 0 L 9.5 0 Z M 9.5 -95.046875 "/></g></g></g><g fill="#f0f8ff" fill-opacity="1"><g transform="translate(894.003239, 216.383933)"><g><path d="M 99.9375 -95.046875 L 99.9375 0 L 77.796875 0 L 35.84375 -50.640625 L 35.84375 0 L 9.5 0 L 9.5 -95.046875 L 31.640625 -95.046875 L 73.59375 -44.40625 L 73.59375 -95.046875 Z M 99.9375 -95.046875 "/></g></g></g><g fill="#f0f8ff" fill-opacity="1"><g transform="translate(1003.438905, 216.383933)"><g><path d="M 73.1875 -49.5625 L 96.953125 -49.5625 L 96.953125 -10.1875 C 91.515625 -6.289062 85.265625 -3.300781 78.203125 -1.21875 C 71.148438 0.863281 64.09375 1.90625 57.03125 1.90625 C 47.070312 1.90625 38.109375 -0.195312 30.140625 -4.40625 C 22.171875 -8.625 15.921875 -14.488281 11.390625 -22 C 6.867188 -29.507812 4.609375 -38.019531 4.609375 -47.53125 C 4.609375 -57.03125 6.867188 -65.535156 11.390625 -73.046875 C 15.921875 -80.554688 22.210938 -86.414062 30.265625 -90.625 C 38.328125 -94.84375 47.429688 -96.953125 57.578125 -96.953125 C 66.441406 -96.953125 74.40625 -95.457031 81.46875 -92.46875 C 88.53125 -89.476562 94.414062 -85.175781 99.125 -79.5625 L 82.015625 -64.09375 C 75.585938 -71.15625 67.890625 -74.6875 58.921875 -74.6875 C 50.773438 -74.6875 44.210938 -72.21875 39.234375 -67.28125 C 34.253906 -62.34375 31.765625 -55.757812 31.765625 -47.53125 C 31.765625 -42.269531 32.894531 -37.582031 35.15625 -33.46875 C 37.425781 -29.351562 40.597656 -26.140625 44.671875 -23.828125 C 48.742188 -21.523438 53.40625 -20.375 58.65625 -20.375 C 63.8125 -20.375 68.65625 -21.410156 73.1875 -23.484375 Z M 73.1875 -49.5625 "/></g></g></g></svg>